<svg width="72" height="73" viewBox="0 0 72 73" fill="none" xmlns="http://www.w3.org/2000/svg">
<path fill-rule="evenodd" clip-rule="evenodd" d="M51.4594 37.7344C47.4501 39.3577 43.1224 40.3589 38.596 40.6184C37.8154 40.6631 37.0289 40.6858 36.237 40.6858C35.4452 40.6858 34.6587 40.6631 33.878 40.6184C29.3506 40.3589 25.0219 39.3572 21.0118 37.7333C12.5964 34.3252 5.5841 28.1763 1.08203 20.3935C8.09928 8.2628 21.215 0.101288 36.237 0.101288C51.259 0.101288 64.3748 8.2628 71.392 20.3935C66.8895 28.1771 59.8761 34.3266 51.4594 37.7344Z" fill="white"/>
<path d="M21.0113 40.8923C20.0418 40.4997 19.0909 40.0707 18.1604 39.607C15.1362 41.7374 12.5796 44.3907 10.6545 47.4179C13.9266 52.5633 19.0232 56.6285 25.1395 58.8817C28.0541 59.9553 31.2001 60.6176 34.4907 60.7891H37.9197C41.2096 60.6176 46.9918 63.8768 38.5954 72.1016C44.7127 69.8485 58.4834 52.5638 61.7559 47.4179C59.8363 44.3993 57.2889 41.7525 54.2759 39.6252C53.3562 40.0824 52.4166 40.5057 51.4588 40.8935C47.4496 42.5168 43.1219 43.518 38.5954 43.7774C37.8148 43.8221 37.0283 43.8448 36.2365 43.8448C35.4446 43.8448 34.6581 43.8221 33.8775 43.7774C29.35 43.5179 25.0213 42.5163 21.0113 40.8923Z" fill="white"/>
<rect x="19.2852" y="15.2026" width="33.9777" height="12.1349" rx="6.06745" fill="#162550"/>
<ellipse cx="45.6439" cy="21.2027" rx="2.22473" ry="2.22473" fill="#04FED1"/>
<ellipse cx="36.2052" cy="51.1352" rx="2.22473" ry="2.22473" fill="#162550"/>
<ellipse cx="27.3077" cy="21.2027" rx="2.22473" ry="2.22473" fill="#04FED1"/>
<ellipse cx="27.3077" cy="51.1352" rx="2.22473" ry="2.22473" fill="#162550"/>
<ellipse cx="45.1053" cy="51.1352" rx="2.22473" ry="2.22473" fill="#162550"/>
</svg>
